<?xml version="1.0" standalone="no"?><!DOCTYPE svg PUBLIC "-//W3C//DTD SVG 1.1//EN"
        "http://www.w3.org/Graphics/SVG/1.1/DTD/svg11.dtd">
<svg class="icon" width="100px" height="100.00px" viewBox="0 0 1024 1024" version="1.1"
     xmlns="http://www.w3.org/2000/svg">
    <path d="M491.648 685.787429c29.568 0 43.282286-20.571429 43.282286-48v-14.573715c0.859429-56.576 21.430857-80.146286 90.002285-127.268571 73.289143-49.737143 119.990857-107.154286 119.990858-189.878857 0-128.566857-104.557714-202.276571-234.422858-202.276572-96.859429 0-182.144 45.860571-218.569142 128.566857-8.996571 20.150857-12.854857 39.862857-12.854858 56.137143 0 24.429714 14.134857 41.581714 40.283429 41.581715 21.851429 0 36.425143-12.854857 42.861714-33.865143 22.272-81.426286 75.849143-112.274286 145.28-112.274286 83.565714 0 148.717714 47.140571 148.717715 121.709714 0 61.275429-38.144 95.561143-93.001143 134.144-67.291429 46.72-116.571429 96.859429-116.571429 172.288v26.989715c0 27.428571 14.994286 46.72 44.982857 46.72z m0 234.422857c33.846857 0 60.854857-27.428571 60.854857-60.854857a60.525714 60.525714 0 0 0-60.854857-60.854858c-33.426286 0-61.293714 27.008-61.293714 60.854858 0 33.426286 27.867429 60.854857 61.293714 60.854857z"/>
</svg>
